#N canvas 117 55 1085 597 10;
#X obj -21 -349 r accY;
#X obj -109 -323 position;
#X obj -109 -349 r accX;
#X floatatom -109 -295 5 0 0 0 - - -;
#X obj 359 152 bells/vibe-bar;
#X obj -83 -42 hradio 15 1 0 10 empty empty Scale 0 -8 0 10 -204800
-4160 -1 0;
#X text 340 -190 decay;
#X obj -109 -192 scales;
#X obj 200 -336 tgl 15 0 empty empty empty 17 7 0 10 -262144 -1 -1
1 1;
#X text 222 -335 audio ON/OFF;
#X msg 200 -300 \; pd dsp \$1;
#X msg 203 -198 60;
#X obj -121 -243 t f b b;
#X msg 343 -173 2000;
#X obj 135 -263 hit;
#X obj -180 -2 loadbang;
#X obj -87 -3 hradio 20 1 0 5 empty empty Position 0 -8 0 10 -204800
-4160 -1 2;
#X obj -176 -99 - 1;
#X obj 368 -241 loadbang;
#X text -144 55 limit;
#X obj 331 -48 bng 20 250 50 0 empty empty Hit 3 -7 0 10 -262144 -4160
-1;
#X obj 277 -46 f;
#X obj 113 -155 nbx 3 20 1 128 0 0 empty empty Root_note -4 -5 0 9
-204800 -1 -1 60 256;
#X obj 397 -133 nbx 4 20 500 4000 0 0 empty empty Decay 0 -5 0 9 -204800
-1 -1 802.5 256;
#X text 440 -191 freq;
#X text 271 -188 root;
#X text 477 -191 shape;
#X text -112 -369 Position;
#X text -23 -368 Strike;
#X text 355 182 Synthesis;
#X msg 443 -174 5;
#X text -186 -139 Send note if hit;
#X text -190 -213 Compute note relative to scale \, position;
#X msg 482 -175 0.1;
#X obj 356 -48 bng 20 250 50 0 empty empty Damp -1 -7 0 10 -262144
-4160 -1;
#X floatatom 80 39 5 0 0 0 - - -;
#X obj -76 39 hsl 145 15 10 150 0 0 empty empty position_responsiveness
-2 -8 0 10 -262144 -1 -1 0 1;
#N canvas 1013 108 450 300 control_scale 0;
#X obj 26 107 f;
#X obj 57 107 + 1;
#X msg 81 56 0;
#X obj 15 68 bng 15 250 50 0 empty empty empty 17 7 0 10 -262144 -1
-1;
#X floatatom 102 222 5 0 0 0 - - -;
#X obj 78 9 loadbang;
#X obj 10 2 inlet;
#X obj 102 249 outlet;
#X obj 10 28 select 1;
#X obj 103 195 mod 10;
#X obj 170 9 inlet;
#X obj 171 108 f;
#X msg 240 69 0;
#X obj 171 83 bng 15 250 50 0 empty empty empty 17 7 0 10 -262144 -1
-1;
#X obj 238 15 loadbang;
#X obj 172 49 select 1;
#X obj 201 108 - 1;
#X obj 103 156 f;
#X connect 0 0 1 0;
#X connect 0 0 17 0;
#X connect 0 0 11 1;
#X connect 1 0 0 1;
#X connect 2 0 0 1;
#X connect 2 0 17 1;
#X connect 3 0 0 0;
#X connect 4 0 7 0;
#X connect 5 0 2 0;
#X connect 6 0 8 0;
#X connect 8 0 3 0;
#X connect 9 0 4 0;
#X connect 10 0 15 0;
#X connect 11 0 16 0;
#X connect 11 0 17 0;
#X connect 11 0 0 1;
#X connect 12 0 11 1;
#X connect 13 0 11 0;
#X connect 14 0 12 0;
#X connect 15 0 13 0;
#X connect 16 0 11 1;
#X connect 17 0 9 0;
#X restore 336 -316 pd control_scale;
#X obj 336 -282 s rscale;
#X obj -36 -90 r rscale;
#X obj 336 -348 r plus;
#X obj 385 -347 r minus;
#X obj 454 188 effects;
#X obj 466 -308 select 1;
#X obj 464 -348 r btA;
#X obj 469 -278 s rdamp;
#X obj 349 -96 r rdamp;
#X obj 246 -106 r hit;
#X obj -191 -324 r hold;
#X obj -191 -291 - 1;
#X obj -131 -268 spigot 1;
#X obj 282 -84 r \$0_scale;
#X obj -95 -162 s \$0_scale;
#X obj 493 153 r \$0_pos;
#X obj -49 -292 s \$0_pos;
#X obj 93 -236 r root_note;
#X obj 87 -199 print gotnote;
#X floatatom 205 -29 5 0 0 0 - - -;
#X obj 399 -181 r \$0_dec;
#X obj 215 2 - 90;
#X floatatom 204 43 5 0 0 0 - - -;
#X floatatom 205 100 5 0 0 0 - - -;
#X obj 205 126 + 500;
#X floatatom 212 163 5 0 0 0 - - -;
#X obj 219 191 s \$0_dec;
#X obj 246 -85 t b f;
#X obj 204 73 * 15;
#X obj -188 -348 pyOSCReceive;
#X msg -140 37 10;
#X connect 1 0 3 0;
#X connect 1 0 54 0;
#X connect 2 0 1 0;
#X connect 3 0 50 0;
#X connect 4 0 42 0;
#X connect 5 0 7 1;
#X connect 7 0 52 0;
#X connect 8 0 10 0;
#X connect 11 0 22 0;
#X connect 12 0 7 0;
#X connect 12 0 17 0;
#X connect 12 1 5 0;
#X connect 12 2 22 0;
#X connect 13 0 4 1;
#X connect 13 0 23 0;
#X connect 15 0 68 0;
#X connect 17 0 16 0;
#X connect 18 0 11 0;
#X connect 18 0 13 0;
#X connect 18 0 30 0;
#X connect 18 0 33 0;
#X connect 20 0 21 0;
#X connect 20 0 42 1;
#X connect 21 0 4 0;
#X connect 22 0 7 2;
#X connect 23 0 4 1;
#X connect 30 0 42 3;
#X connect 33 0 42 4;
#X connect 34 0 42 2;
#X connect 36 0 35 0;
#X connect 36 0 1 1;
#X connect 37 0 38 0;
#X connect 39 0 5 0;
#X connect 40 0 37 0;
#X connect 41 0 37 1;
#X connect 43 0 45 0;
#X connect 44 0 43 0;
#X connect 46 0 34 0;
#X connect 47 0 65 0;
#X connect 48 0 49 0;
#X connect 49 0 50 1;
#X connect 50 0 12 0;
#X connect 51 0 21 1;
#X connect 53 0 42 5;
#X connect 55 0 56 0;
#X connect 55 0 22 0;
#X connect 57 0 59 0;
#X connect 58 0 23 0;
#X connect 59 0 60 0;
#X connect 60 0 66 0;
#X connect 61 0 62 0;
#X connect 62 0 63 0;
#X connect 63 0 64 0;
#X connect 65 0 20 0;
#X connect 65 0 21 0;
#X connect 65 1 57 0;
#X connect 66 0 61 0;
#X connect 68 0 36 0;
